<?xml version="1.0" encoding="UTF-8" standalone="no"?>
<svg
   xmlns:dc="http://purl.org/dc/elements/1.1/"
   xmlns:cc="http://creativecommons.org/ns#"
   xmlns:rdf="http://www.w3.org/1999/02/22-rdf-syntax-ns#"
   xmlns:svg="http://www.w3.org/2000/svg"
   xmlns="http://www.w3.org/2000/svg"
   xmlns:sodipodi="http://sodipodi.sourceforge.net/DTD/sodipodi-0.dtd"
   xmlns:inkscape="http://www.inkscape.org/namespaces/inkscape"
   viewBox="0 0 348 348"
   fill="none"
   stroke-linecap="square"
   stroke-miterlimit="10"
   version="1.1"
   id="svg75"
   sodipodi:docname="Ángel Hernández.svg"
   inkscape:version="1.0.2-2 (e86c870879, 2021-01-15)">
  <metadata
     id="metadata81">
    <rdf:RDF>
      <cc:Work
         rdf:about="">
        <dc:format>image/svg+xml</dc:format>
        <dc:type
           rdf:resource="http://purl.org/dc/dcmitype/StillImage" />
        <dc:title></dc:title>
      </cc:Work>
    </rdf:RDF>
  </metadata>
  <defs
     id="defs79" />
  <sodipodi:namedview
     pagecolor="#ffffff"
     bordercolor="#666666"
     borderopacity="1"
     objecttolerance="10"
     gridtolerance="10"
     guidetolerance="10"
     inkscape:pageopacity="0"
     inkscape:pageshadow="2"
     inkscape:window-width="640"
     inkscape:window-height="480"
     id="namedview77"
     showgrid="false"
     inkscape:zoom="2.4425287"
     inkscape:cx="174"
     inkscape:cy="174"
     inkscape:current-layer="svg75" />
  <clipPath
     id="a">
    <path
       d="M0 0h348v348H0V0z"
       id="path2" />
  </clipPath>
  <path
     fill="none"
     d="M 0,0 H 348 V 348 H 0 Z"
     id="path5" />
  <path
     fill="#ffffff"
     d="M -6,0 H 342 V 347.969 H -6 Z"
     id="path7" />
  <path
     fill="none"
     d="m 5.079,5.776 h 336.913 v 337.67 H 5.08 Z"
     id="path9" />
  <path
     stroke="#000000"
     stroke-width="2"
     stroke-linejoin="round"
     stroke-linecap="butt"
     d="m 5.079,5.776 h 336.913 v 337.67 H 5.08 Z"
     id="path11" />
  <path
     fill="#ffffff"
     d="m 282.734,40.554 c 0,-8.376 6.966,-15.165 15.56,-15.165 4.126,0 8.084,1.597 11.001,4.441 2.918,2.844 4.558,6.702 4.558,10.724 0,8.376 -6.966,15.165 -15.56,15.165 -8.593,0 -15.559,-6.79 -15.559,-15.165 z"
     id="path13" />
  <path
     stroke="#000000"
     stroke-width="2"
     stroke-linejoin="round"
     stroke-linecap="butt"
     d="m 282.734,40.554 c 0,-8.376 6.966,-15.165 15.56,-15.165 4.126,0 8.084,1.597 11.001,4.441 2.918,2.844 4.558,6.702 4.558,10.724 0,8.376 -6.966,15.165 -15.56,15.165 -8.593,0 -15.559,-6.79 -15.559,-15.165 z"
     id="path15" />
  <path
     fill="#000000"
     d="m 34.772,25.39 h 232.41 V 92.949 H 34.771 Z"
     id="path17" />
  <path
     stroke="#000000"
     stroke-width="2"
     stroke-linejoin="round"
     stroke-linecap="butt"
     d="m 34.772,25.39 h 232.41 V 92.949 H 34.771 Z"
     id="path19" />
  <path
     fill="none"
     d="m 34.772,202.318 h 106.645 v 44.819 H 34.772 Z"
     id="path23" />
  <path
     stroke="#000000"
     stroke-linejoin="round"
     stroke-linecap="butt"
     d="m 34.772,202.318 h 106.645 v 44.819 H 34.772 Z"
     id="path25" />
  <path
     fill="none"
     d="m 34.772,125.226 h 106.645 v 44.82 H 34.772 Z"
     id="path29" />
  <path
     stroke="#000000"
     stroke-linejoin="round"
     stroke-linecap="butt"
     d="m 34.772,125.226 h 106.645 v 44.82 H 34.772 Z"
     id="path31" />
  <path
     fill="none"
     d="m 34.772,270.604 h 106.645 v 44.819 H 34.772 Z"
     id="path35" />
  <path
     stroke="#000000"
     stroke-linejoin="round"
     stroke-linecap="butt"
     d="m 34.772,270.604 h 106.645 v 44.819 H 34.772 Z"
     id="path37" />
  <path
     fill="none"
     d="m 157.407,202.318 h 106.645 v 44.819 H 157.407 Z"
     id="path41" />
  <path
     stroke="#000000"
     stroke-linejoin="round"
     stroke-linecap="butt"
     d="m 157.407,202.318 h 106.645 v 44.819 H 157.407 Z"
     id="path43" />
  <path
     fill="none"
     d="m 157.407,125.226 h 106.645 v 44.82 H 157.407 Z"
     id="path47" />
  <path
     stroke="#000000"
     stroke-linejoin="round"
     stroke-linecap="butt"
     d="m 157.407,125.226 h 106.645 v 44.82 H 157.407 Z"
     id="path49" />
  <path
     fill="none"
     d="m 157.407,270.604 h 106.645 v 44.819 H 157.407 Z"
     id="path53" />
  <path
     stroke="#000000"
     stroke-linejoin="round"
     stroke-linecap="butt"
     d="m 157.407,270.604 h 106.645 v 44.819 H 157.407 Z"
     id="path55" />
  <path
     stroke="#000000"
     stroke-width="2"
     stroke-linejoin="round"
     stroke-linecap="butt"
     d="m 277.462,106.383 h 52.661 v 209.04 h -52.661 z"
     id="path59"
     style="fill:#000000;fill-opacity:1" />
  <path
     fill="#ffffff"
     d="m 290.06,245.113 h 27.465 v 16.472 H 290.06 Z"
     id="path61" />
  <path
     stroke="#000000"
     stroke-width="2"
     stroke-linejoin="round"
     stroke-linecap="butt"
     d="m 290.06,245.113 h 27.465 v 16.472 H 290.06 Z"
     id="path63" />
  <path
     fill="#ffffff"
     d="m 290.06,208.903 h 27.465 v 16.472 H 290.06 Z"
     id="path65" />
  <path
     stroke="#000000"
     stroke-width="2"
     stroke-linejoin="round"
     stroke-linecap="butt"
     d="m 290.06,208.903 h 27.465 v 16.472 H 290.06 Z"
     id="path67" />
  <path
     fill="#ffffff"
     d="m 290.06,281.323 h 27.465 v 16.472 H 290.06 Z"
     id="path69" />
  <path
     stroke="#000000"
     stroke-width="2"
     stroke-linejoin="round"
     stroke-linecap="butt"
     d="m 290.06,281.323 h 27.465 v 16.472 H 290.06 Z"
     id="path71" />
</svg>
